<svg width="52" height="23" viewBox="0 0 52 23" fill="none" xmlns="http://www.w3.org/2000/svg">
<path d="M50 11.5L50.5303 12.0303L51.0607 11.5L50.5303 10.9697L50 11.5ZM40.5303 0.96967C40.2374 0.676777 39.7626 0.676777 39.4697 0.96967C39.1768 1.26256 39.1768 1.73744 39.4697 2.03033L40.5303 0.96967ZM39.4697 20.9697C39.1768 21.2626 39.1768 21.7374 39.4697 22.0303C39.7626 22.3232 40.2374 22.3232 40.5303 22.0303L39.4697 20.9697ZM0 12.25H50V10.75H0V12.25ZM39.4697 2.03033L49.4697 12.0303L50.5303 10.9697L40.5303 0.96967L39.4697 2.03033ZM49.4697 10.9697L39.4697 20.9697L40.5303 22.0303L50.5303 12.0303L49.4697 10.9697Z" fill="#008847"/>
</svg>
