<svg width="52" height="19" viewBox="0 0 52 19" fill="none" xmlns="http://www.w3.org/2000/svg">
<path d="M2 9.5L1.53148 8.91435L0.799414 9.5L1.53148 10.0857L2 9.5ZM11.5315 18.0857C11.8549 18.3444 12.3269 18.292 12.5857 17.9685C12.8444 17.6451 12.792 17.1731 12.4685 16.9143L11.5315 18.0857ZM12.4685 2.08565C12.792 1.82689 12.8444 1.35493 12.5857 1.03148C12.3269 0.708032 11.8549 0.655591 11.5315 0.914348L12.4685 2.08565ZM52 8.75L2 8.75L2 10.25L52 10.25V8.75ZM12.4685 16.9143L2.46852 8.91435L1.53148 10.0857L11.5315 18.0857L12.4685 16.9143ZM2.46852 10.0857L12.4685 2.08565L11.5315 0.914348L1.53148 8.91435L2.46852 10.0857Z" fill="#008847"/>
</svg>
